<?xml version="1.0"?>
<svg width="125" height="125" xmlns="http://www.w3.org/2000/svg" xmlns:svg="http://www.w3.org/2000/svg">
 <!-- Created with SVG-edit - http://svg-edit.googlecode.com/ -->

 <g>
  <title>Layer 1</title>
  <path id="svg_1" d="m30.27359,87.949432q31.436401,21.589874 62.799591,0m-55.986298,-42.640656c0,-3.336884 2.704987,-6.041687 6.04187,-6.041687c3.336456,0 6.041534,2.704803 6.041534,6.041687c0,3.336746 -2.705078,6.041504 -6.041534,6.041504c-3.336884,0 -6.04187,-2.704758 -6.04187,-6.041504m37.163055,0c0,-3.336884 2.704803,-6.041687 6.041595,-6.041687c3.336639,0 6.041992,2.704803 6.041992,6.041687c0,3.336746 -2.705353,6.041504 -6.041992,6.041504c-3.336792,0 -6.041595,-2.704758 -6.041595,-6.041504m-70.539948,17.346497l0,0c0,-32.032806 25.96756,-58.000275 58,-58.000275c32.032684,0 58.000305,25.967468 58.000305,58.000275c0,32.032166 -25.967621,57.999725 -58.000305,57.999725c-32.03244,0 -58,-25.96756 -58,-57.999725zm0,0l0,0c0,-32.032806 25.96756,-58.000275 58,-58.000275c32.032684,0 58.000305,25.967468 58.000305,58.000275c0,32.032166 -25.967621,57.999725 -58.000305,57.999725c-32.03244,0 -58,-25.96756 -58,-57.999725z" stroke-width="5" stroke="#005fbf" fill="#ffff00"/>
 </g>
</svg>